<mxfile host="65bd71144e">
    <diagram id="yhBK8fdwnMuHDkQHyW-p" name="Page-1">
        <mxGraphModel dx="4760" dy="3680" grid="1" gridSize="10" guides="1" tooltips="1" connect="1" arrows="1" fold="1" page="0" pageScale="1" pageWidth="850" pageHeight="1100" math="0" shadow="0">
            <root>
                <mxCell id="0"/>
                <mxCell id="1" parent="0"/>
                <mxCell id="4" value="" style="edgeStyle=none;html=1;" parent="1" source="2" target="3" edge="1">
                    <mxGeometry relative="1" as="geometry"/>
                </mxCell>
                <mxCell id="2" value="Inicio" style="ellipse;whiteSpace=wrap;html=1;" parent="1" vertex="1">
                    <mxGeometry x="-610" y="-295" width="120" height="80" as="geometry"/>
                </mxCell>
                <mxCell id="6" value="" style="edgeStyle=none;html=1;" parent="1" source="3" target="5" edge="1">
                    <mxGeometry relative="1" as="geometry"/>
                </mxCell>
                <mxCell id="3" value="R" style="whiteSpace=wrap;html=1;" parent="1" vertex="1">
                    <mxGeometry x="-610" y="-165" width="120" height="60" as="geometry"/>
                </mxCell>
                <mxCell id="5" value="R=2x+2=3" style="whiteSpace=wrap;html=1;" parent="1" vertex="1">
                    <mxGeometry x="-610" y="-55" width="120" height="60" as="geometry"/>
                </mxCell>
                <mxCell id="10" value="&lt;font color=&quot;#333333&quot; face=&quot;Verdana&quot; style=&quot;font-size: 30px; background-color: rgb(153, 255, 204);&quot;&gt;Estructura de control lineal&lt;/font&gt;" style="text;html=1;align=center;verticalAlign=middle;resizable=0;points=[];autosize=1;strokeColor=none;fillColor=none;" parent="1" vertex="1">
                    <mxGeometry x="-765" y="-355" width="430" height="50" as="geometry"/>
                </mxCell>
                <mxCell id="13" value="" style="edgeStyle=none;html=1;fontFamily=Verdana;fontSize=13;fontColor=#3333FF;" parent="1" target="12" edge="1">
                    <mxGeometry relative="1" as="geometry">
                        <mxPoint x="-660" y="-880" as="sourcePoint"/>
                    </mxGeometry>
                </mxCell>
                <mxCell id="15" value="" style="edgeStyle=none;html=1;fontFamily=Verdana;fontSize=13;fontColor=#3333FF;" parent="1" source="12" target="14" edge="1">
                    <mxGeometry relative="1" as="geometry"/>
                </mxCell>
                <mxCell id="12" value="" style="whiteSpace=wrap;html=1;fontSize=13;fontFamily=Verdana;fontColor=#3333FF;labelBackgroundColor=#FFFFFF;" parent="1" vertex="1">
                    <mxGeometry x="-720" y="-860" width="120" height="60" as="geometry"/>
                </mxCell>
                <mxCell id="54" value="" style="edgeStyle=none;html=1;fontFamily=Verdana;fontSize=13;fontColor=#FFFFFF;" parent="1" source="14" target="36" edge="1">
                    <mxGeometry relative="1" as="geometry"/>
                </mxCell>
                <mxCell id="14" value="" style="rhombus;whiteSpace=wrap;html=1;fontSize=13;fontFamily=Verdana;fontColor=#3333FF;labelBackgroundColor=#FFFFFF;" parent="1" vertex="1">
                    <mxGeometry x="-700" y="-770" width="80" height="80" as="geometry"/>
                </mxCell>
                <mxCell id="20" value="" style="endArrow=none;html=1;fontFamily=Verdana;fontSize=13;fontColor=#3333FF;exitX=1;exitY=0.5;exitDx=0;exitDy=0;" parent="1" source="14" edge="1">
                    <mxGeometry width="50" height="50" relative="1" as="geometry">
                        <mxPoint x="-664" y="-780" as="sourcePoint"/>
                        <mxPoint x="-534" y="-730" as="targetPoint"/>
                    </mxGeometry>
                </mxCell>
                <mxCell id="21" value="" style="endArrow=none;html=1;fontFamily=Verdana;fontSize=13;fontColor=#3333FF;" parent="1" target="22" edge="1">
                    <mxGeometry width="50" height="50" relative="1" as="geometry">
                        <mxPoint x="-534" y="-730" as="sourcePoint"/>
                        <mxPoint x="-534" y="-680" as="targetPoint"/>
                    </mxGeometry>
                </mxCell>
                <mxCell id="22" value="" style="rounded=0;whiteSpace=wrap;html=1;labelBackgroundColor=#FFFFFF;fontFamily=Verdana;fontSize=13;fontColor=#3333FF;" parent="1" vertex="1">
                    <mxGeometry x="-594" y="-710" width="120" height="60" as="geometry"/>
                </mxCell>
                <mxCell id="23" value="" style="endArrow=none;html=1;fontFamily=Verdana;fontSize=13;fontColor=#3333FF;" parent="1" edge="1">
                    <mxGeometry width="50" height="50" relative="1" as="geometry">
                        <mxPoint x="-533" y="-650" as="sourcePoint"/>
                        <mxPoint x="-533" y="-630" as="targetPoint"/>
                    </mxGeometry>
                </mxCell>
                <mxCell id="24" value="" style="endArrow=none;html=1;fontFamily=Verdana;fontSize=13;fontColor=#3333FF;exitX=1;exitY=0.5;exitDx=0;exitDy=0;" parent="1" edge="1">
                    <mxGeometry width="50" height="50" relative="1" as="geometry">
                        <mxPoint x="-640" y="-630" as="sourcePoint"/>
                        <mxPoint x="-533" y="-630" as="targetPoint"/>
                    </mxGeometry>
                </mxCell>
                <mxCell id="31" value="" style="edgeStyle=none;html=1;fontFamily=Verdana;fontSize=13;fontColor=#FFFFFF;exitX=0.479;exitY=1.009;exitDx=0;exitDy=0;exitPerimeter=0;" parent="1" target="29" edge="1">
                    <mxGeometry relative="1" as="geometry">
                        <mxPoint x="-660.6300000000001" y="-614.73" as="sourcePoint"/>
                    </mxGeometry>
                </mxCell>
                <mxCell id="27" value="V" style="text;html=1;align=center;verticalAlign=middle;resizable=0;points=[];autosize=1;strokeColor=none;fillColor=none;fontSize=13;fontFamily=Verdana;fontColor=#FFFFFF;" parent="1" vertex="1">
                    <mxGeometry x="-584" y="-765" width="30" height="30" as="geometry"/>
                </mxCell>
                <mxCell id="29" value="" style="ellipse;whiteSpace=wrap;html=1;labelBackgroundColor=#FFFFFF;fontFamily=Verdana;fontSize=13;fontColor=#FFFFFF;" parent="1" vertex="1">
                    <mxGeometry x="-720" y="-580" width="120" height="80" as="geometry"/>
                </mxCell>
                <mxCell id="32" value="Fin" style="text;html=1;align=center;verticalAlign=middle;resizable=0;points=[];autosize=1;strokeColor=none;fillColor=none;fontSize=13;fontFamily=Verdana;fontColor=#FFFFFF;" parent="1" vertex="1">
                    <mxGeometry x="-680" y="-555" width="40" height="30" as="geometry"/>
                </mxCell>
                <mxCell id="35" value="" style="edgeStyle=none;html=1;fontFamily=Verdana;fontSize=13;fontColor=#FFFFFF;" parent="1" target="34" edge="1">
                    <mxGeometry relative="1" as="geometry">
                        <mxPoint x="-568" y="410" as="sourcePoint"/>
                    </mxGeometry>
                </mxCell>
                <mxCell id="40" value="" style="edgeStyle=none;html=1;fontFamily=Verdana;fontSize=13;fontColor=#FFFFFF;" parent="1" source="34" target="39" edge="1">
                    <mxGeometry relative="1" as="geometry"/>
                </mxCell>
                <mxCell id="34" value="" style="whiteSpace=wrap;html=1;fontSize=13;fontFamily=Verdana;fontColor=#FFFFFF;labelBackgroundColor=#FFFFFF;" parent="1" vertex="1">
                    <mxGeometry x="-628" y="450" width="120" height="60" as="geometry"/>
                </mxCell>
                <mxCell id="36" value="" style="shape=sumEllipse;perimeter=ellipsePerimeter;whiteSpace=wrap;html=1;backgroundOutline=1;labelBackgroundColor=#FFFFFF;fontFamily=Verdana;fontSize=13;fontColor=#FFFFFF;" parent="1" vertex="1">
                    <mxGeometry x="-690" y="-660" width="60" height="60" as="geometry"/>
                </mxCell>
                <mxCell id="42" value="" style="edgeStyle=none;html=1;fontFamily=Verdana;fontSize=13;fontColor=#FFFFFF;" parent="1" source="39" target="41" edge="1">
                    <mxGeometry relative="1" as="geometry"/>
                </mxCell>
                <mxCell id="44" value="" style="edgeStyle=none;html=1;fontFamily=Verdana;fontSize=13;fontColor=#FFFFFF;" parent="1" source="39" target="43" edge="1">
                    <mxGeometry relative="1" as="geometry"/>
                </mxCell>
                <mxCell id="39" value="" style="rhombus;whiteSpace=wrap;html=1;fontSize=13;fontFamily=Verdana;fontColor=#FFFFFF;labelBackgroundColor=#FFFFFF;" parent="1" vertex="1">
                    <mxGeometry x="-608" y="540" width="80" height="80" as="geometry"/>
                </mxCell>
                <mxCell id="41" value="" style="whiteSpace=wrap;html=1;fontSize=13;fontFamily=Verdana;fontColor=#FFFFFF;labelBackgroundColor=#FFFFFF;" parent="1" vertex="1">
                    <mxGeometry x="-450" y="550" width="120" height="60" as="geometry"/>
                </mxCell>
                <mxCell id="43" value="" style="whiteSpace=wrap;html=1;fontSize=13;fontFamily=Verdana;fontColor=#FFFFFF;labelBackgroundColor=#FFFFFF;" parent="1" vertex="1">
                    <mxGeometry x="-810" y="550" width="120" height="60" as="geometry"/>
                </mxCell>
                <mxCell id="45" value="" style="endArrow=none;html=1;fontFamily=Verdana;fontSize=13;fontColor=#FFFFFF;entryX=0.5;entryY=1;entryDx=0;entryDy=0;" parent="1" target="43" edge="1">
                    <mxGeometry width="50" height="50" relative="1" as="geometry">
                        <mxPoint x="-750" y="660" as="sourcePoint"/>
                        <mxPoint x="-570" y="610" as="targetPoint"/>
                    </mxGeometry>
                </mxCell>
                <mxCell id="47" value="" style="endArrow=none;html=1;fontFamily=Verdana;fontSize=13;fontColor=#FFFFFF;entryX=0.5;entryY=1;entryDx=0;entryDy=0;" parent="1" target="41" edge="1">
                    <mxGeometry width="50" height="50" relative="1" as="geometry">
                        <mxPoint x="-390" y="660" as="sourcePoint"/>
                        <mxPoint x="-729.9999999999998" y="630" as="targetPoint"/>
                    </mxGeometry>
                </mxCell>
                <mxCell id="48" value="" style="endArrow=none;html=1;fontFamily=Verdana;fontSize=13;fontColor=#FFFFFF;startArrow=none;" parent="1" source="49" edge="1">
                    <mxGeometry width="50" height="50" relative="1" as="geometry">
                        <mxPoint x="-750" y="660" as="sourcePoint"/>
                        <mxPoint x="-390" y="660" as="targetPoint"/>
                    </mxGeometry>
                </mxCell>
                <mxCell id="50" value="" style="endArrow=none;html=1;fontFamily=Verdana;fontSize=13;fontColor=#FFFFFF;" parent="1" target="49" edge="1">
                    <mxGeometry width="50" height="50" relative="1" as="geometry">
                        <mxPoint x="-749.9999999999998" y="660" as="sourcePoint"/>
                        <mxPoint x="-390" y="660" as="targetPoint"/>
                    </mxGeometry>
                </mxCell>
                <mxCell id="52" value="" style="edgeStyle=none;html=1;fontFamily=Verdana;fontSize=13;fontColor=#FFFFFF;" parent="1" source="49" edge="1">
                    <mxGeometry relative="1" as="geometry">
                        <mxPoint x="-566" y="730" as="targetPoint"/>
                    </mxGeometry>
                </mxCell>
                <mxCell id="49" value="" style="shape=sumEllipse;perimeter=ellipsePerimeter;whiteSpace=wrap;html=1;backgroundOutline=1;labelBackgroundColor=#FFFFFF;fontFamily=Verdana;fontSize=13;fontColor=#FFFFFF;" parent="1" vertex="1">
                    <mxGeometry x="-597" y="630" width="58" height="60" as="geometry"/>
                </mxCell>
                <mxCell id="56" value="&lt;font style=&quot;font-size: 30px;&quot; face=&quot;Verdana&quot;&gt;If/Else&lt;/font&gt;" style="text;html=1;align=center;verticalAlign=middle;resizable=0;points=[];autosize=1;strokeColor=none;fillColor=none;labelBackgroundColor=#99FFCC;fontColor=#333333;" parent="1" vertex="1">
                    <mxGeometry x="-280" y="295" width="120" height="50" as="geometry"/>
                </mxCell>
                <mxCell id="59" value="" style="edgeStyle=none;html=1;fontFamily=Verdana;fontSize=23;fontColor=#000000;exitX=0.495;exitY=0.835;exitDx=0;exitDy=0;exitPerimeter=0;entryX=0.5;entryY=0;entryDx=0;entryDy=0;" parent="1" source="164" target="165" edge="1">
                    <mxGeometry relative="1" as="geometry">
                        <mxPoint x="-550" y="45" as="sourcePoint"/>
                        <mxPoint x="-550.1346793714022" y="125.00022669355826" as="targetPoint"/>
                    </mxGeometry>
                </mxCell>
                <mxCell id="60" value="" style="edgeStyle=none;html=1;fontFamily=Verdana;fontSize=13;fontColor=#FFFFFF;" parent="1" target="63" edge="1">
                    <mxGeometry relative="1" as="geometry">
                        <mxPoint x="1205.855145176316" y="361.9872705256671" as="sourcePoint"/>
                    </mxGeometry>
                </mxCell>
                <mxCell id="62" value="" style="edgeStyle=none;html=1;fontFamily=Verdana;fontSize=13;fontColor=#FFFFFF;" parent="1" source="63" target="66" edge="1">
                    <mxGeometry relative="1" as="geometry"/>
                </mxCell>
                <mxCell id="63" value="" style="whiteSpace=wrap;html=1;fontSize=13;fontFamily=Verdana;fontColor=#FFFFFF;labelBackgroundColor=#FFFFFF;" parent="1" vertex="1">
                    <mxGeometry x="1144" y="402" width="120" height="60" as="geometry"/>
                </mxCell>
                <mxCell id="65" value="" style="edgeStyle=none;html=1;fontFamily=Verdana;fontSize=13;fontColor=#FFFFFF;" parent="1" source="66" edge="1">
                    <mxGeometry relative="1" as="geometry">
                        <mxPoint x="1028" y="532" as="targetPoint"/>
                    </mxGeometry>
                </mxCell>
                <mxCell id="66" value="" style="rhombus;whiteSpace=wrap;html=1;fontSize=13;fontFamily=Verdana;fontColor=#FFFFFF;labelBackgroundColor=#FFFFFF;" parent="1" vertex="1">
                    <mxGeometry x="1164" y="492" width="80" height="80" as="geometry"/>
                </mxCell>
                <mxCell id="69" value="" style="endArrow=none;html=1;fontFamily=Verdana;fontSize=13;fontColor=#FFFFFF;entryX=0.5;entryY=1;entryDx=0;entryDy=0;" parent="1" edge="1">
                    <mxGeometry width="50" height="50" relative="1" as="geometry">
                        <mxPoint x="1038" y="622" as="sourcePoint"/>
                        <mxPoint x="1038" y="532" as="targetPoint"/>
                    </mxGeometry>
                </mxCell>
                <mxCell id="70" value="" style="endArrow=none;html=1;fontFamily=Verdana;fontSize=13;fontColor=#FFFFFF;" parent="1" edge="1">
                    <mxGeometry width="50" height="50" relative="1" as="geometry">
                        <mxPoint x="1378" y="572" as="sourcePoint"/>
                        <mxPoint x="1378" y="532" as="targetPoint"/>
                    </mxGeometry>
                </mxCell>
                <mxCell id="78" value="" style="edgeStyle=none;html=1;fontFamily=Verdana;fontSize=23;fontColor=#FFFFFF;" parent="1" target="77" edge="1">
                    <mxGeometry relative="1" as="geometry">
                        <mxPoint x="-50" y="-885" as="sourcePoint"/>
                    </mxGeometry>
                </mxCell>
                <mxCell id="80" value="" style="edgeStyle=none;html=1;fontFamily=Verdana;fontSize=23;fontColor=#FFFFFF;startArrow=none;exitX=0.5;exitY=1;exitDx=0;exitDy=0;" parent="1" source="77" target="79" edge="1">
                    <mxGeometry relative="1" as="geometry"/>
                </mxCell>
                <mxCell id="77" value="" style="whiteSpace=wrap;html=1;fontSize=23;fontFamily=Verdana;fontColor=#000000;labelBackgroundColor=#000000;" parent="1" vertex="1">
                    <mxGeometry x="-110" y="-855" width="120" height="60" as="geometry"/>
                </mxCell>
                <mxCell id="82" value="" style="edgeStyle=none;html=1;fontFamily=Verdana;fontSize=23;fontColor=#FFFFFF;" parent="1" source="79" edge="1">
                    <mxGeometry relative="1" as="geometry">
                        <mxPoint x="-50" y="-675" as="targetPoint"/>
                    </mxGeometry>
                </mxCell>
                <mxCell id="79" value="" style="whiteSpace=wrap;html=1;fontSize=23;fontFamily=Verdana;fontColor=#000000;labelBackgroundColor=#000000;" parent="1" vertex="1">
                    <mxGeometry x="-110" y="-755" width="120" height="60" as="geometry"/>
                </mxCell>
                <mxCell id="84" value="" style="edgeStyle=none;html=1;fontFamily=Verdana;fontSize=23;fontColor=#FFFFFF;exitX=0.5;exitY=1;exitDx=0;exitDy=0;" parent="1" source="99" target="83" edge="1">
                    <mxGeometry relative="1" as="geometry">
                        <mxPoint x="-50" y="-635" as="sourcePoint"/>
                    </mxGeometry>
                </mxCell>
                <mxCell id="88" value="" style="edgeStyle=none;html=1;fontFamily=Verdana;fontSize=23;fontColor=#FFFFFF;" parent="1" source="83" target="87" edge="1">
                    <mxGeometry relative="1" as="geometry"/>
                </mxCell>
                <mxCell id="83" value="" style="rhombus;whiteSpace=wrap;html=1;labelBackgroundColor=none;fontFamily=Verdana;fontSize=23;fontColor=#FFFFFF;" parent="1" vertex="1">
                    <mxGeometry x="-90" y="-605" width="80" height="80" as="geometry"/>
                </mxCell>
                <mxCell id="85" value="" style="endArrow=none;html=1;fontFamily=Verdana;fontSize=23;fontColor=#FFFFFF;entryX=0;entryY=0.5;entryDx=0;entryDy=0;" parent="1" target="99" edge="1">
                    <mxGeometry width="50" height="50" relative="1" as="geometry">
                        <mxPoint x="-170" y="-660" as="sourcePoint"/>
                        <mxPoint x="-70" y="-655" as="targetPoint"/>
                    </mxGeometry>
                </mxCell>
                <mxCell id="86" value="" style="endArrow=none;html=1;fontFamily=Verdana;fontSize=23;fontColor=#FFFFFF;" parent="1" edge="1">
                    <mxGeometry width="50" height="50" relative="1" as="geometry">
                        <mxPoint x="-170" y="-665" as="sourcePoint"/>
                        <mxPoint x="-170" y="-275" as="targetPoint"/>
                    </mxGeometry>
                </mxCell>
                <mxCell id="90" value="" style="edgeStyle=none;html=1;fontFamily=Verdana;fontSize=23;fontColor=#FFFFFF;" parent="1" source="87" target="89" edge="1">
                    <mxGeometry relative="1" as="geometry"/>
                </mxCell>
                <mxCell id="87" value="" style="whiteSpace=wrap;html=1;fontSize=23;fontFamily=Verdana;fontColor=#FFFFFF;labelBackgroundColor=none;" parent="1" vertex="1">
                    <mxGeometry x="-110" y="-485" width="120" height="60" as="geometry"/>
                </mxCell>
                <mxCell id="89" value="" style="whiteSpace=wrap;html=1;fontSize=23;fontFamily=Verdana;fontColor=#FFFFFF;labelBackgroundColor=none;" parent="1" vertex="1">
                    <mxGeometry x="-110" y="-385" width="120" height="60" as="geometry"/>
                </mxCell>
                <mxCell id="91" value="" style="endArrow=none;html=1;fontFamily=Verdana;fontSize=23;fontColor=#FFFFFF;" parent="1" edge="1">
                    <mxGeometry width="50" height="50" relative="1" as="geometry">
                        <mxPoint x="-170" y="-275" as="sourcePoint"/>
                        <mxPoint x="-50" y="-275" as="targetPoint"/>
                    </mxGeometry>
                </mxCell>
                <mxCell id="92" value="" style="endArrow=none;html=1;fontFamily=Verdana;fontSize=23;fontColor=#FFFFFF;entryX=0.5;entryY=1;entryDx=0;entryDy=0;" parent="1" target="89" edge="1">
                    <mxGeometry width="50" height="50" relative="1" as="geometry">
                        <mxPoint x="-50" y="-275" as="sourcePoint"/>
                        <mxPoint x="280" y="-415" as="targetPoint"/>
                    </mxGeometry>
                </mxCell>
                <mxCell id="93" value="" style="endArrow=none;html=1;fontFamily=Verdana;fontSize=23;fontColor=#FFFFFF;exitX=1;exitY=0.5;exitDx=0;exitDy=0;" parent="1" source="83" edge="1">
                    <mxGeometry width="50" height="50" relative="1" as="geometry">
                        <mxPoint x="230" y="-365" as="sourcePoint"/>
                        <mxPoint x="90" y="-565" as="targetPoint"/>
                    </mxGeometry>
                </mxCell>
                <mxCell id="94" value="" style="endArrow=none;html=1;fontFamily=Verdana;fontSize=23;fontColor=#FFFFFF;" parent="1" edge="1">
                    <mxGeometry width="50" height="50" relative="1" as="geometry">
                        <mxPoint x="-50" y="-255" as="sourcePoint"/>
                        <mxPoint x="90" y="-254.99999999999977" as="targetPoint"/>
                    </mxGeometry>
                </mxCell>
                <mxCell id="95" value="" style="endArrow=none;html=1;fontFamily=Verdana;fontSize=23;fontColor=#FFFFFF;" parent="1" edge="1">
                    <mxGeometry width="50" height="50" relative="1" as="geometry">
                        <mxPoint x="90" y="-565" as="sourcePoint"/>
                        <mxPoint x="90" y="-255" as="targetPoint"/>
                    </mxGeometry>
                </mxCell>
                <mxCell id="96" value="" style="endArrow=classic;html=1;fontFamily=Verdana;fontSize=23;fontColor=#FFFFFF;" parent="1" edge="1">
                    <mxGeometry width="50" height="50" relative="1" as="geometry">
                        <mxPoint x="-50.56" y="-255" as="sourcePoint"/>
                        <mxPoint x="-50.56" y="-195" as="targetPoint"/>
                    </mxGeometry>
                </mxCell>
                <mxCell id="97" value="Fin" style="ellipse;whiteSpace=wrap;html=1;labelBackgroundColor=none;fontFamily=Verdana;fontSize=23;fontColor=#FFFFFF;" parent="1" vertex="1">
                    <mxGeometry x="-110" y="-195" width="120" height="80" as="geometry"/>
                </mxCell>
                <mxCell id="98" value="&lt;font color=&quot;#333333&quot; style=&quot;font-size: 30px; background-color: rgb(153, 255, 204);&quot;&gt;while&lt;/font&gt;" style="text;html=1;align=center;verticalAlign=middle;resizable=0;points=[];autosize=1;strokeColor=none;fillColor=none;fontSize=23;fontFamily=Verdana;fontColor=#FFFFFF;" parent="1" vertex="1">
                    <mxGeometry x="110" y="-1060" width="100" height="50" as="geometry"/>
                </mxCell>
                <mxCell id="99" value="" style="shape=sumEllipse;perimeter=ellipsePerimeter;whiteSpace=wrap;html=1;backgroundOutline=1;labelBackgroundColor=#3333FF;fontFamily=Verdana;fontSize=38;fontColor=#FFFFFF;" parent="1" vertex="1">
                    <mxGeometry x="-65" y="-675" width="30" height="30" as="geometry"/>
                </mxCell>
                <mxCell id="102" value="" style="edgeStyle=none;html=1;fontFamily=Verdana;fontSize=38;fontColor=#FFFFFF;" parent="1" target="101" edge="1">
                    <mxGeometry relative="1" as="geometry">
                        <mxPoint x="845" y="-840" as="sourcePoint"/>
                    </mxGeometry>
                </mxCell>
                <mxCell id="104" value="" style="edgeStyle=none;html=1;fontFamily=Verdana;fontSize=38;fontColor=#FFFFFF;" parent="1" source="101" target="103" edge="1">
                    <mxGeometry relative="1" as="geometry"/>
                </mxCell>
                <mxCell id="101" value="" style="whiteSpace=wrap;html=1;fontSize=38;fontFamily=Verdana;fontColor=#FFFFFF;labelBackgroundColor=#3333FF;" parent="1" vertex="1">
                    <mxGeometry x="747.5" y="-800" width="195" height="100" as="geometry"/>
                </mxCell>
                <mxCell id="103" value="" style="rhombus;whiteSpace=wrap;html=1;fontSize=38;fontFamily=Verdana;fontColor=#FFFFFF;labelBackgroundColor=#3333FF;" parent="1" vertex="1">
                    <mxGeometry x="747.5" y="-650" width="205" height="130" as="geometry"/>
                </mxCell>
                <mxCell id="105" value="" style="endArrow=none;html=1;fontFamily=Verdana;fontSize=38;fontColor=#FFFFFF;" parent="1" edge="1">
                    <mxGeometry width="50" height="50" relative="1" as="geometry">
                        <mxPoint x="430" y="-450" as="sourcePoint"/>
                        <mxPoint x="1260" y="-450" as="targetPoint"/>
                        <Array as="points">
                            <mxPoint x="820" y="-450"/>
                        </Array>
                    </mxGeometry>
                </mxCell>
                <mxCell id="107" value="" style="rounded=0;whiteSpace=wrap;html=1;labelBackgroundColor=#3333FF;fontFamily=Verdana;fontSize=38;fontColor=#FFFFFF;" parent="1" vertex="1">
                    <mxGeometry x="360" y="-400" width="140" height="90" as="geometry"/>
                </mxCell>
                <mxCell id="108" value="" style="rounded=0;whiteSpace=wrap;html=1;labelBackgroundColor=#3333FF;fontFamily=Verdana;fontSize=38;fontColor=#FFFFFF;" parent="1" vertex="1">
                    <mxGeometry x="620" y="-400" width="140" height="90" as="geometry"/>
                </mxCell>
                <mxCell id="109" value="" style="rounded=0;whiteSpace=wrap;html=1;labelBackgroundColor=#3333FF;fontFamily=Verdana;fontSize=38;fontColor=#FFFFFF;" parent="1" vertex="1">
                    <mxGeometry x="900" y="-400" width="140" height="90" as="geometry"/>
                </mxCell>
                <mxCell id="110" value="" style="rounded=0;whiteSpace=wrap;html=1;labelBackgroundColor=#3333FF;fontFamily=Verdana;fontSize=38;fontColor=#FFFFFF;" parent="1" vertex="1">
                    <mxGeometry x="1190" y="-400" width="140" height="90" as="geometry"/>
                </mxCell>
                <mxCell id="111" value="" style="endArrow=none;html=1;fontFamily=Verdana;fontSize=38;fontColor=#FFFFFF;entryX=0.5;entryY=0;entryDx=0;entryDy=0;" parent="1" target="107" edge="1">
                    <mxGeometry width="50" height="50" relative="1" as="geometry">
                        <mxPoint x="430" y="-450" as="sourcePoint"/>
                        <mxPoint x="870" y="-550" as="targetPoint"/>
                    </mxGeometry>
                </mxCell>
                <mxCell id="114" value="" style="endArrow=none;html=1;fontFamily=Verdana;fontSize=38;fontColor=#FFFFFF;entryX=0.5;entryY=0;entryDx=0;entryDy=0;" parent="1" target="108" edge="1">
                    <mxGeometry width="50" height="50" relative="1" as="geometry">
                        <mxPoint x="690" y="-450" as="sourcePoint"/>
                        <mxPoint x="460" y="-369.9999999999998" as="targetPoint"/>
                    </mxGeometry>
                </mxCell>
                <mxCell id="115" value="" style="endArrow=none;html=1;fontFamily=Verdana;fontSize=38;fontColor=#FFFFFF;entryX=0.5;entryY=0;entryDx=0;entryDy=0;" parent="1" target="109" edge="1">
                    <mxGeometry width="50" height="50" relative="1" as="geometry">
                        <mxPoint x="970" y="-450" as="sourcePoint"/>
                        <mxPoint x="470" y="-359.9999999999998" as="targetPoint"/>
                    </mxGeometry>
                </mxCell>
                <mxCell id="116" value="" style="endArrow=none;html=1;fontFamily=Verdana;fontSize=38;fontColor=#FFFFFF;entryX=0.5;entryY=0;entryDx=0;entryDy=0;" parent="1" target="110" edge="1">
                    <mxGeometry width="50" height="50" relative="1" as="geometry">
                        <mxPoint x="1260" y="-450" as="sourcePoint"/>
                        <mxPoint x="480" y="-349.9999999999998" as="targetPoint"/>
                    </mxGeometry>
                </mxCell>
                <mxCell id="118" value="" style="endArrow=none;html=1;fontFamily=Verdana;fontSize=38;fontColor=#FFFFFF;exitX=0.5;exitY=1;exitDx=0;exitDy=0;" parent="1" source="103" edge="1">
                    <mxGeometry width="50" height="50" relative="1" as="geometry">
                        <mxPoint x="990" y="-430" as="sourcePoint"/>
                        <mxPoint x="850" y="-450" as="targetPoint"/>
                    </mxGeometry>
                </mxCell>
                <mxCell id="119" value="" style="endArrow=none;html=1;fontFamily=Verdana;fontSize=38;fontColor=#FFFFFF;" parent="1" edge="1">
                    <mxGeometry width="50" height="50" relative="1" as="geometry">
                        <mxPoint x="430" y="-241" as="sourcePoint"/>
                        <mxPoint x="1264.9999999999995" y="-240.76999999999978" as="targetPoint"/>
                        <Array as="points">
                            <mxPoint x="825" y="-240.77"/>
                        </Array>
                    </mxGeometry>
                </mxCell>
                <mxCell id="121" value="" style="endArrow=none;html=1;fontFamily=Verdana;fontSize=38;fontColor=#FFFFFF;exitX=0.5;exitY=1;exitDx=0;exitDy=0;" parent="1" source="107" edge="1">
                    <mxGeometry width="50" height="50" relative="1" as="geometry">
                        <mxPoint x="436" y="-292" as="sourcePoint"/>
                        <mxPoint x="430" y="-240" as="targetPoint"/>
                    </mxGeometry>
                </mxCell>
                <mxCell id="122" value="" style="endArrow=none;html=1;fontFamily=Verdana;fontSize=38;fontColor=#FFFFFF;exitX=0.5;exitY=1;exitDx=0;exitDy=0;" parent="1" source="108" edge="1">
                    <mxGeometry width="50" height="50" relative="1" as="geometry">
                        <mxPoint x="696" y="-292" as="sourcePoint"/>
                        <mxPoint x="690" y="-240" as="targetPoint"/>
                    </mxGeometry>
                </mxCell>
                <mxCell id="123" value="" style="endArrow=none;html=1;fontFamily=Verdana;fontSize=38;fontColor=#FFFFFF;exitX=0.5;exitY=1;exitDx=0;exitDy=0;" parent="1" source="109" edge="1">
                    <mxGeometry width="50" height="50" relative="1" as="geometry">
                        <mxPoint x="980" y="-280" as="sourcePoint"/>
                        <mxPoint x="970" y="-242" as="targetPoint"/>
                    </mxGeometry>
                </mxCell>
                <mxCell id="124" value="" style="endArrow=none;html=1;fontFamily=Verdana;fontSize=38;fontColor=#FFFFFF;exitX=0.5;exitY=1;exitDx=0;exitDy=0;" parent="1" source="110" edge="1">
                    <mxGeometry width="50" height="50" relative="1" as="geometry">
                        <mxPoint x="1266" y="-292" as="sourcePoint"/>
                        <mxPoint x="1260" y="-242" as="targetPoint"/>
                    </mxGeometry>
                </mxCell>
                <mxCell id="127" value="" style="endArrow=none;html=1;fontFamily=Verdana;fontSize=38;fontColor=#FFFFFF;exitX=0.5;exitY=0;exitDx=0;exitDy=0;" parent="1" edge="1">
                    <mxGeometry width="50" height="50" relative="1" as="geometry">
                        <mxPoint x="850" y="-180" as="sourcePoint"/>
                        <mxPoint x="850" y="-240" as="targetPoint"/>
                    </mxGeometry>
                </mxCell>
                <mxCell id="128" value="&lt;font style=&quot;font-size: 30px;&quot;&gt;Case&lt;/font&gt;" style="text;html=1;align=center;verticalAlign=middle;resizable=0;points=[];autosize=1;strokeColor=none;fillColor=none;fontSize=38;fontFamily=Verdana;fontColor=#333333;labelBackgroundColor=#99FFCC;" parent="1" vertex="1">
                    <mxGeometry x="1030" y="-1065" width="100" height="60" as="geometry"/>
                </mxCell>
                <mxCell id="129" value="&lt;font color=&quot;#333333&quot; style=&quot;font-size: 30px; background-color: rgb(153, 255, 204);&quot;&gt;Do while&lt;/font&gt;" style="text;html=1;align=center;verticalAlign=middle;resizable=0;points=[];autosize=1;strokeColor=none;fillColor=none;fontSize=38;fontFamily=Verdana;fontColor=#FFFFFF;" parent="1" vertex="1">
                    <mxGeometry x="500" y="290" width="150" height="60" as="geometry"/>
                </mxCell>
                <mxCell id="130" value="" style="endArrow=none;html=1;exitX=1;exitY=0.5;exitDx=0;exitDy=0;" edge="1" parent="1" source="66">
                    <mxGeometry width="50" height="50" relative="1" as="geometry">
                        <mxPoint x="1328" y="622" as="sourcePoint"/>
                        <mxPoint x="1378" y="532" as="targetPoint"/>
                    </mxGeometry>
                </mxCell>
                <mxCell id="131" value="" style="rhombus;whiteSpace=wrap;html=1;" vertex="1" parent="1">
                    <mxGeometry x="1338" y="572" width="80" height="80" as="geometry"/>
                </mxCell>
                <mxCell id="132" value="" style="endArrow=none;html=1;entryX=0;entryY=0.5;entryDx=0;entryDy=0;" edge="1" parent="1" target="131">
                    <mxGeometry width="50" height="50" relative="1" as="geometry">
                        <mxPoint x="1248" y="612" as="sourcePoint"/>
                        <mxPoint x="1378" y="572" as="targetPoint"/>
                    </mxGeometry>
                </mxCell>
                <mxCell id="134" value="" style="endArrow=none;html=1;exitX=1;exitY=0.5;exitDx=0;exitDy=0;" edge="1" parent="1" source="131">
                    <mxGeometry width="50" height="50" relative="1" as="geometry">
                        <mxPoint x="1268" y="632" as="sourcePoint"/>
                        <mxPoint x="1518" y="612" as="targetPoint"/>
                    </mxGeometry>
                </mxCell>
                <mxCell id="135" value="" style="endArrow=none;html=1;fontFamily=Verdana;fontSize=13;fontColor=#FFFFFF;" edge="1" parent="1">
                    <mxGeometry width="50" height="50" relative="1" as="geometry">
                        <mxPoint x="1249" y="651" as="sourcePoint"/>
                        <mxPoint x="1249" y="611" as="targetPoint"/>
                    </mxGeometry>
                </mxCell>
                <mxCell id="136" value="" style="endArrow=none;html=1;fontFamily=Verdana;fontSize=13;fontColor=#FFFFFF;" edge="1" parent="1">
                    <mxGeometry width="50" height="50" relative="1" as="geometry">
                        <mxPoint x="1517" y="652" as="sourcePoint"/>
                        <mxPoint x="1517" y="612" as="targetPoint"/>
                    </mxGeometry>
                </mxCell>
                <mxCell id="137" value="" style="rounded=0;whiteSpace=wrap;html=1;" vertex="1" parent="1">
                    <mxGeometry x="1188" y="652" width="120" height="60" as="geometry"/>
                </mxCell>
                <mxCell id="138" value="" style="rounded=0;whiteSpace=wrap;html=1;" vertex="1" parent="1">
                    <mxGeometry x="1453" y="652" width="120" height="60" as="geometry"/>
                </mxCell>
                <mxCell id="139" value="" style="rounded=0;whiteSpace=wrap;html=1;" vertex="1" parent="1">
                    <mxGeometry x="978" y="622" width="120" height="60" as="geometry"/>
                </mxCell>
                <mxCell id="140" value="" style="shape=sumEllipse;perimeter=ellipsePerimeter;whiteSpace=wrap;html=1;backgroundOutline=1;" vertex="1" parent="1">
                    <mxGeometry x="1358" y="732" width="40" height="40" as="geometry"/>
                </mxCell>
                <mxCell id="142" value="" style="endArrow=none;html=1;entryX=0;entryY=0.5;entryDx=0;entryDy=0;" edge="1" parent="1">
                    <mxGeometry width="50" height="50" relative="1" as="geometry">
                        <mxPoint x="1248" y="752" as="sourcePoint"/>
                        <mxPoint x="1358" y="752" as="targetPoint"/>
                    </mxGeometry>
                </mxCell>
                <mxCell id="143" value="" style="endArrow=none;html=1;fontFamily=Verdana;fontSize=13;fontColor=#FFFFFF;" edge="1" parent="1">
                    <mxGeometry width="50" height="50" relative="1" as="geometry">
                        <mxPoint x="1248" y="752" as="sourcePoint"/>
                        <mxPoint x="1248" y="712" as="targetPoint"/>
                    </mxGeometry>
                </mxCell>
                <mxCell id="144" value="" style="endArrow=none;html=1;fontFamily=Verdana;fontSize=13;fontColor=#FFFFFF;" edge="1" parent="1">
                    <mxGeometry width="50" height="50" relative="1" as="geometry">
                        <mxPoint x="1517" y="752" as="sourcePoint"/>
                        <mxPoint x="1517" y="712" as="targetPoint"/>
                    </mxGeometry>
                </mxCell>
                <mxCell id="145" value="" style="endArrow=none;html=1;entryX=0;entryY=0.5;entryDx=0;entryDy=0;exitX=1;exitY=0.5;exitDx=0;exitDy=0;" edge="1" parent="1" source="140">
                    <mxGeometry width="50" height="50" relative="1" as="geometry">
                        <mxPoint x="1406" y="752" as="sourcePoint"/>
                        <mxPoint x="1516" y="752" as="targetPoint"/>
                    </mxGeometry>
                </mxCell>
                <mxCell id="192" value="" style="edgeStyle=none;html=1;fontSize=8;fontColor=#333333;" edge="1" parent="1" source="146">
                    <mxGeometry relative="1" as="geometry">
                        <mxPoint x="1204" y="910" as="targetPoint"/>
                    </mxGeometry>
                </mxCell>
                <mxCell id="146" value="" style="shape=sumEllipse;perimeter=ellipsePerimeter;whiteSpace=wrap;html=1;backgroundOutline=1;" vertex="1" parent="1">
                    <mxGeometry x="1164" y="792" width="80" height="80" as="geometry"/>
                </mxCell>
                <mxCell id="147" value="" style="endArrow=none;html=1;exitX=0.5;exitY=1;exitDx=0;exitDy=0;" edge="1" parent="1" source="139">
                    <mxGeometry width="50" height="50" relative="1" as="geometry">
                        <mxPoint x="1278" y="742" as="sourcePoint"/>
                        <mxPoint x="1038" y="832" as="targetPoint"/>
                    </mxGeometry>
                </mxCell>
                <mxCell id="148" value="" style="endArrow=none;html=1;entryX=0;entryY=0.5;entryDx=0;entryDy=0;" edge="1" parent="1" target="146">
                    <mxGeometry width="50" height="50" relative="1" as="geometry">
                        <mxPoint x="1038" y="832" as="sourcePoint"/>
                        <mxPoint x="1328" y="692" as="targetPoint"/>
                    </mxGeometry>
                </mxCell>
                <mxCell id="149" value="" style="endArrow=none;html=1;exitX=1;exitY=0.5;exitDx=0;exitDy=0;" edge="1" parent="1" source="146">
                    <mxGeometry width="50" height="50" relative="1" as="geometry">
                        <mxPoint x="1278" y="742" as="sourcePoint"/>
                        <mxPoint x="1378" y="832" as="targetPoint"/>
                    </mxGeometry>
                </mxCell>
                <mxCell id="150" value="" style="endArrow=none;html=1;entryX=0.5;entryY=1;entryDx=0;entryDy=0;" edge="1" parent="1" target="140">
                    <mxGeometry width="50" height="50" relative="1" as="geometry">
                        <mxPoint x="1378" y="832" as="sourcePoint"/>
                        <mxPoint x="1328" y="692" as="targetPoint"/>
                    </mxGeometry>
                </mxCell>
                <mxCell id="151" value="&lt;font style=&quot;font-size: 30px;&quot;&gt;If anidado&lt;/font&gt;" style="text;html=1;align=center;verticalAlign=middle;resizable=0;points=[];autosize=1;strokeColor=none;fillColor=none;labelBackgroundColor=#99FFCC;fontColor=#333333;" vertex="1" parent="1">
                    <mxGeometry x="1600" y="305" width="160" height="50" as="geometry"/>
                </mxCell>
                <mxCell id="152" value="&lt;font style=&quot;font-size: 20px;&quot;&gt;inicio&lt;/font&gt;" style="ellipse;whiteSpace=wrap;html=1;fontSize=30;" vertex="1" parent="1">
                    <mxGeometry x="256" y="290" width="120" height="80" as="geometry"/>
                </mxCell>
                <mxCell id="153" value="" style="shape=sumEllipse;perimeter=ellipsePerimeter;whiteSpace=wrap;html=1;backgroundOutline=1;fontSize=30;" vertex="1" parent="1">
                    <mxGeometry x="276" y="420" width="80" height="80" as="geometry"/>
                </mxCell>
                <mxCell id="154" value="" style="rhombus;whiteSpace=wrap;html=1;fontSize=30;" vertex="1" parent="1">
                    <mxGeometry x="276" y="550" width="80" height="80" as="geometry"/>
                </mxCell>
                <mxCell id="159" style="edgeStyle=none;html=1;entryX=1;entryY=0.5;entryDx=0;entryDy=0;fontSize=30;exitX=1;exitY=0.5;exitDx=0;exitDy=0;" edge="1" parent="1" source="154" target="156">
                    <mxGeometry relative="1" as="geometry">
                        <Array as="points">
                            <mxPoint x="510" y="590"/>
                            <mxPoint x="510" y="840"/>
                        </Array>
                    </mxGeometry>
                </mxCell>
                <mxCell id="155" value="" style="rounded=0;whiteSpace=wrap;html=1;fontSize=30;" vertex="1" parent="1">
                    <mxGeometry x="260" y="690" width="120" height="60" as="geometry"/>
                </mxCell>
                <mxCell id="156" value="&lt;span style=&quot;font-size: 22px;&quot;&gt;Fin&lt;/span&gt;" style="ellipse;whiteSpace=wrap;html=1;fontSize=30;" vertex="1" parent="1">
                    <mxGeometry x="260" y="800" width="120" height="80" as="geometry"/>
                </mxCell>
                <mxCell id="161" value="" style="endArrow=none;html=1;fontSize=30;entryX=0.5;entryY=1;entryDx=0;entryDy=0;exitX=0;exitY=0.5;exitDx=0;exitDy=0;" edge="1" parent="1" source="153" target="155">
                    <mxGeometry width="50" height="50" relative="1" as="geometry">
                        <mxPoint x="240" y="730" as="sourcePoint"/>
                        <mxPoint x="290" y="680" as="targetPoint"/>
                        <Array as="points">
                            <mxPoint x="120" y="460"/>
                            <mxPoint x="120" y="790"/>
                            <mxPoint x="320" y="790"/>
                        </Array>
                    </mxGeometry>
                </mxCell>
                <mxCell id="162" value="" style="endArrow=none;html=1;fontSize=30;entryX=0.5;entryY=1;entryDx=0;entryDy=0;exitX=0.5;exitY=0;exitDx=0;exitDy=0;" edge="1" parent="1" source="153" target="152">
                    <mxGeometry width="50" height="50" relative="1" as="geometry">
                        <mxPoint x="240" y="370" as="sourcePoint"/>
                        <mxPoint x="290" y="320" as="targetPoint"/>
                    </mxGeometry>
                </mxCell>
                <mxCell id="163" value="" style="endArrow=none;html=1;fontSize=30;entryX=0.5;entryY=1;entryDx=0;entryDy=0;exitX=0.5;exitY=0;exitDx=0;exitDy=0;" edge="1" parent="1" source="154" target="153">
                    <mxGeometry width="50" height="50" relative="1" as="geometry">
                        <mxPoint x="380" y="590" as="sourcePoint"/>
                        <mxPoint x="430" y="540" as="targetPoint"/>
                    </mxGeometry>
                </mxCell>
                <mxCell id="164" value="&lt;font size=&quot;1&quot;&gt;imprimir&amp;nbsp; R&lt;/font&gt;" style="shape=document;whiteSpace=wrap;html=1;boundedLbl=1;labelBackgroundColor=none;fontSize=30;fontColor=#FFFFFF;" vertex="1" parent="1">
                    <mxGeometry x="-610" y="-40" width="120" height="80" as="geometry"/>
                </mxCell>
                <mxCell id="165" value="Fin" style="ellipse;whiteSpace=wrap;html=1;aspect=fixed;labelBackgroundColor=none;fontSize=15;fontColor=#FFFFFF;" vertex="1" parent="1">
                    <mxGeometry x="-590" y="130" width="80" height="80" as="geometry"/>
                </mxCell>
                <mxCell id="166" value="inicio" style="ellipse;whiteSpace=wrap;html=1;labelBackgroundColor=none;fontSize=15;fontColor=#FFFFFF;" vertex="1" parent="1">
                    <mxGeometry x="-720" y="-960" width="120" height="80" as="geometry"/>
                </mxCell>
                <mxCell id="167" value="&lt;font color=&quot;#333333&quot; style=&quot;font-size: 30px; background-color: rgb(153, 255, 204);&quot;&gt;If&lt;/font&gt;" style="text;html=1;align=center;verticalAlign=middle;resizable=0;points=[];autosize=1;strokeColor=none;fillColor=none;fontSize=15;fontColor=#FFFFFF;" vertex="1" parent="1">
                    <mxGeometry x="-514" y="-1060" width="40" height="50" as="geometry"/>
                </mxCell>
                <mxCell id="168" value="&lt;font size=&quot;1&quot;&gt;inicio&lt;/font&gt;" style="ellipse;whiteSpace=wrap;html=1;labelBackgroundColor=none;fontSize=30;fontColor=#FFFFFF;" vertex="1" parent="1">
                    <mxGeometry x="-110" y="-960" width="120" height="80" as="geometry"/>
                </mxCell>
                <mxCell id="170" value="inicio" style="ellipse;whiteSpace=wrap;html=1;labelBackgroundColor=none;fontSize=37;fontColor=#FFFFFF;" vertex="1" parent="1">
                    <mxGeometry x="760" y="-970" width="170" height="130" as="geometry"/>
                </mxCell>
                <mxCell id="171" value="fin" style="ellipse;whiteSpace=wrap;html=1;labelBackgroundColor=none;fontSize=37;fontColor=#FFFFFF;" vertex="1" parent="1">
                    <mxGeometry x="705" y="-185" width="280" height="130" as="geometry"/>
                </mxCell>
                <mxCell id="172" value="&lt;font style=&quot;font-size: 20px;&quot;&gt;inicio&lt;/font&gt;" style="ellipse;whiteSpace=wrap;html=1;labelBackgroundColor=none;fontSize=37;fontColor=#FFFFFF;" vertex="1" parent="1">
                    <mxGeometry x="-628" y="330" width="120" height="80" as="geometry"/>
                </mxCell>
                <mxCell id="173" value="inicio" style="ellipse;whiteSpace=wrap;html=1;labelBackgroundColor=none;fontSize=14;fontColor=#FFFFFF;" vertex="1" parent="1">
                    <mxGeometry x="1144" y="282" width="120" height="80" as="geometry"/>
                </mxCell>
                <mxCell id="178" value="&lt;span style=&quot;font-family: &amp;quot;IBM Plex Sans&amp;quot;, system-ui, -apple-system, BlinkMacSystemFont, &amp;quot;.SFNSText-Regular&amp;quot;, sans-serif; font-size: 16px; font-style: normal; font-variant-ligatures: normal; font-variant-caps: normal; font-weight: 400; letter-spacing: normal; orphans: 2; text-align: start; text-indent: 0px; text-transform: none; widows: 2; word-spacing: 0px; -webkit-text-stroke-width: 0px; text-decoration-thickness: initial; text-decoration-style: initial; text-decoration-color: initial; float: none; display: inline !important;&quot;&gt;Utilice la sentencia IF para determinar el flujo del programa en función de la evaluación de&amp;nbsp;&lt;/span&gt;&lt;em style=&quot;box-sizing: inherit; padding: 0px; border: 0px; margin: 0px; font-style: italic; font-variant-ligatures: normal; font-variant-caps: normal; font-variant-numeric: inherit; font-variant-east-asian: inherit; font-variant-alternates: inherit; font-variant-position: inherit; font-weight: 400; font-stretch: inherit; line-height: inherit; font-family: &amp;quot;IBM Plex Sans&amp;quot;, system-ui, -apple-system, BlinkMacSystemFont, &amp;quot;.SFNSText-Regular&amp;quot;, sans-serif; font-optical-sizing: inherit; font-kerning: inherit; font-feature-settings: inherit; font-variation-settings: inherit; font-size: 16px; vertical-align: baseline; letter-spacing: normal; orphans: 2; text-align: start; text-indent: 0px; text-transform: none; widows: 2; word-spacing: 0px; -webkit-text-stroke-width: 0px; text-decoration-thickness: initial; text-decoration-style: initial; text-decoration-color: initial;&quot; class=&quot;ph i&quot;&gt;expresión&lt;/em&gt;&lt;span style=&quot;font-family: &amp;quot;IBM Plex Sans&amp;quot;, system-ui, -apple-system, BlinkMacSystemFont, &amp;quot;.SFNSText-Regular&amp;quot;, sans-serif; font-size: 16px; font-style: normal; font-variant-ligatures: normal; font-variant-caps: normal; font-weight: 400; letter-spacing: normal; orphans: 2; text-align: start; text-indent: 0px; text-transform: none; widows: 2; word-spacing: 0px; -webkit-text-stroke-width: 0px; text-decoration-thickness: initial; text-decoration-style: initial; text-decoration-color: initial; float: none; display: inline !important;&quot;&gt;. Si el valor de&lt;span&gt;&amp;nbsp;&lt;/span&gt;&lt;/span&gt;&lt;em style=&quot;box-sizing: inherit; padding: 0px; border: 0px; margin: 0px; font-style: italic; font-variant-ligatures: normal; font-variant-caps: normal; font-variant-numeric: inherit; font-variant-east-asian: inherit; font-variant-alternates: inherit; font-variant-position: inherit; font-weight: 400; font-stretch: inherit; line-height: inherit; font-family: &amp;quot;IBM Plex Sans&amp;quot;, system-ui, -apple-system, BlinkMacSystemFont, &amp;quot;.SFNSText-Regular&amp;quot;, sans-serif; font-optical-sizing: inherit; font-kerning: inherit; font-feature-settings: inherit; font-variation-settings: inherit; font-size: 16px; vertical-align: baseline; letter-spacing: normal; orphans: 2; text-align: start; text-indent: 0px; text-transform: none; widows: 2; word-spacing: 0px; -webkit-text-stroke-width: 0px; text-decoration-thickness: initial; text-decoration-style: initial; text-decoration-color: initial;&quot; class=&quot;ph i&quot;&gt;expresión&lt;/em&gt;&lt;span style=&quot;font-family: &amp;quot;IBM Plex Sans&amp;quot;, system-ui, -apple-system, BlinkMacSystemFont, &amp;quot;.SFNSText-Regular&amp;quot;, sans-serif; font-size: 16px; font-style: normal; font-variant-ligatures: normal; font-variant-caps: normal; font-weight: 400; letter-spacing: normal; orphans: 2; text-align: start; text-indent: 0px; text-transform: none; widows: 2; word-spacing: 0px; -webkit-text-stroke-width: 0px; text-decoration-thickness: initial; text-decoration-style: initial; text-decoration-color: initial; float: none; display: inline !important;&quot;&gt;&lt;span&gt;&amp;nbsp;&lt;/span&gt;es verdadero, se ejecutan las sentencias THEN. Si el valor de&lt;span&gt;&amp;nbsp;&lt;/span&gt;&lt;/span&gt;&lt;em style=&quot;box-sizing: inherit; padding: 0px; border: 0px; margin: 0px; font-style: italic; font-variant-ligatures: normal; font-variant-caps: normal; font-variant-numeric: inherit; font-variant-east-asian: inherit; font-variant-alternates: inherit; font-variant-position: inherit; font-weight: 400; font-stretch: inherit; line-height: inherit; font-family: &amp;quot;IBM Plex Sans&amp;quot;, system-ui, -apple-system, BlinkMacSystemFont, &amp;quot;.SFNSText-Regular&amp;quot;, sans-serif; font-optical-sizing: inherit; font-kerning: inherit; font-feature-settings: inherit; font-variation-settings: inherit; font-size: 16px; vertical-align: baseline; letter-spacing: normal; orphans: 2; text-align: start; text-indent: 0px; text-transform: none; widows: 2; word-spacing: 0px; -webkit-text-stroke-width: 0px; text-decoration-thickness: initial; text-decoration-style: initial; text-decoration-color: initial;&quot; class=&quot;ph i&quot;&gt;expresión&lt;/em&gt;&lt;span style=&quot;font-family: &amp;quot;IBM Plex Sans&amp;quot;, system-ui, -apple-system, BlinkMacSystemFont, &amp;quot;.SFNSText-Regular&amp;quot;, sans-serif; font-size: 16px; font-style: normal; font-variant-ligatures: normal; font-variant-caps: normal; font-weight: 400; letter-spacing: normal; orphans: 2; text-align: start; text-indent: 0px; text-transform: none; widows: 2; word-spacing: 0px; -webkit-text-stroke-width: 0px; text-decoration-thickness: initial; text-decoration-style: initial; text-decoration-color: initial; float: none; display: inline !important;&quot;&gt;&lt;span&gt;&amp;nbsp;&lt;/span&gt;es falso, se omiten las sentencias THEN y se ejecutan las sentencias ELSE. Si&lt;span&gt;&amp;nbsp;&lt;/span&gt;&lt;/span&gt;&lt;em style=&quot;box-sizing: inherit; padding: 0px; border: 0px; margin: 0px; font-style: italic; font-variant-ligatures: normal; font-variant-caps: normal; font-variant-numeric: inherit; font-variant-east-asian: inherit; font-variant-alternates: inherit; font-variant-position: inherit; font-weight: 400; font-stretch: inherit; line-height: inherit; font-family: &amp;quot;IBM Plex Sans&amp;quot;, system-ui, -apple-system, BlinkMacSystemFont, &amp;quot;.SFNSText-Regular&amp;quot;, sans-serif; font-optical-sizing: inherit; font-kerning: inherit; font-feature-settings: inherit; font-variation-settings: inherit; font-size: 16px; vertical-align: baseline; letter-spacing: normal; orphans: 2; text-align: start; text-indent: 0px; text-transform: none; widows: 2; word-spacing: 0px; -webkit-text-stroke-width: 0px; text-decoration-thickness: initial; text-decoration-style: initial; text-decoration-color: initial;&quot; class=&quot;ph i&quot;&gt;expresión&lt;/em&gt;&lt;span style=&quot;font-family: &amp;quot;IBM Plex Sans&amp;quot;, system-ui, -apple-system, BlinkMacSystemFont, &amp;quot;.SFNSText-Regular&amp;quot;, sans-serif; font-size: 16px; font-style: normal; font-variant-ligatures: normal; font-variant-caps: normal; font-weight: 400; letter-spacing: normal; orphans: 2; text-align: start; text-indent: 0px; text-transform: none; widows: 2; word-spacing: 0px; -webkit-text-stroke-width: 0px; text-decoration-thickness: initial; text-decoration-style: initial; text-decoration-color: initial; float: none; display: inline !important;&quot;&gt;&lt;span&gt;&amp;nbsp;&lt;/span&gt;es el valor nulo,&lt;span&gt;&amp;nbsp;&lt;/span&gt;&lt;/span&gt;&lt;em style=&quot;box-sizing: inherit; padding: 0px; border: 0px; margin: 0px; font-style: italic; font-variant-ligatures: normal; font-variant-caps: normal; font-variant-numeric: inherit; font-variant-east-asian: inherit; font-variant-alternates: inherit; font-variant-position: inherit; font-weight: 400; font-stretch: inherit; line-height: inherit; font-family: &amp;quot;IBM Plex Sans&amp;quot;, system-ui, -apple-system, BlinkMacSystemFont, &amp;quot;.SFNSText-Regular&amp;quot;, sans-serif; font-optical-sizing: inherit; font-kerning: inherit; font-feature-settings: inherit; font-variation-settings: inherit; font-size: 16px; vertical-align: baseline; letter-spacing: normal; orphans: 2; text-align: start; text-indent: 0px; text-transform: none; widows: 2; word-spacing: 0px; -webkit-text-stroke-width: 0px; text-decoration-thickness: initial; text-decoration-style: initial; text-decoration-color: initial;&quot; class=&quot;ph i&quot;&gt;expresión&lt;/em&gt;&lt;span style=&quot;font-family: &amp;quot;IBM Plex Sans&amp;quot;, system-ui, -apple-system, BlinkMacSystemFont, &amp;quot;.SFNSText-Regular&amp;quot;, sans-serif; font-size: 16px; font-style: normal; font-variant-ligatures: normal; font-variant-caps: normal; font-weight: 400; letter-spacing: normal; orphans: 2; text-align: start; text-indent: 0px; text-transform: none; widows: 2; word-spacing: 0px; -webkit-text-stroke-width: 0px; text-decoration-thickness: initial; text-decoration-style: initial; text-decoration-color: initial; float: none; display: inline !important;&quot;&gt;&amp;nbsp;se evalúa como falsa. Si no existe ninguna sentencia ELSE, la ejecución del programa continúa con la siguiente sentencia ejecutable.&lt;/span&gt;" style="text;whiteSpace=wrap;html=1;fontSize=8;fontColor=#333333;labelBackgroundColor=#99FFCC;" vertex="1" parent="1">
                    <mxGeometry x="-502" y="-1000" width="302" height="120" as="geometry"/>
                </mxCell>
                <mxCell id="181" value="&lt;span id=&quot;docs-internal-guid-fd17ba06-7fff-2c5c-a618-e1e8bd52cd9a&quot;&gt;&lt;p style=&quot;line-height:1.38;margin-top:0pt;margin-bottom:0pt;&quot; dir=&quot;ltr&quot;&gt;&lt;span style=&quot;font-size: 15pt; font-family: Arial, sans-serif; background-color: transparent; font-variant-numeric: normal; font-variant-east-asian: normal; font-variant-alternates: normal; font-variant-position: normal; vertical-align: baseline;&quot;&gt;La sentencia while examina el valor del contador cada vez que se ejecuta el bucle y concluye su ejecución cuando el valor del contador es cero.&lt;/span&gt;&lt;/p&gt;&lt;div&gt;&lt;span style=&quot;font-size: 15pt; font-family: Arial, sans-serif; background-color: transparent; font-variant-numeric: normal; font-variant-east-asian: normal; font-variant-alternates: normal; font-variant-position: normal; vertical-align: baseline;&quot;&gt;&lt;br&gt;&lt;/span&gt;&lt;/div&gt;&lt;/span&gt;" style="text;whiteSpace=wrap;html=1;fontSize=8;fontColor=#333333;labelBackgroundColor=#99FFCC;" vertex="1" parent="1">
                    <mxGeometry x="80" y="-1000" width="260" height="160" as="geometry"/>
                </mxCell>
                <mxCell id="182" value="&lt;span style=&quot;color: rgb(22, 22, 22); font-family: &amp;quot;IBM Plex Sans&amp;quot;, system-ui, -apple-system, BlinkMacSystemFont, &amp;quot;.SFNSText-Regular&amp;quot;, sans-serif; font-size: 16px; font-style: normal; font-variant-ligatures: normal; font-variant-caps: normal; font-weight: 400; letter-spacing: normal; orphans: 2; text-align: start; text-indent: 0px; text-transform: none; widows: 2; word-spacing: 0px; -webkit-text-stroke-width: 0px; text-decoration-thickness: initial; text-decoration-style: initial; text-decoration-color: initial; float: none; display: inline !important;&quot;&gt;La sentencia CASE utiliza las normas definidas en cláusulas WHEN para seleccionar un bloque de sentencias que se ha de procesar.&lt;/span&gt;" style="text;whiteSpace=wrap;html=1;fontSize=8;fontColor=#333333;labelBackgroundColor=#99FFCC;" vertex="1" parent="1">
                    <mxGeometry x="1038" y="-1000" width="270" height="110" as="geometry"/>
                </mxCell>
                <mxCell id="187" value="&lt;b id=&quot;docs-internal-guid-930c3bfc-7fff-191f-b2ca-33e86d352eeb&quot; style=&quot;font-weight:normal;&quot;&gt;&lt;p style=&quot;line-height:1.38;margin-top:0pt;margin-bottom:0pt;&quot; dir=&quot;ltr&quot;&gt;&lt;span style=&quot;font-size: 12pt; font-family: Arial, sans-serif; color: rgb(22, 22, 22); font-weight: 400; font-style: normal; font-variant: normal; text-decoration: none; vertical-align: baseline;&quot;&gt;La sentencia do while es la primera sentencia de la construcción do while , que indica que desea el bloque de sentencias siguiente, hasta una sentencia de terminal especificada incluida, que se ejecuten repetidamente mientras la expresión lógica especificada en la sentencia siga siendo verdadera.&lt;/span&gt;&lt;/p&gt;&lt;/b&gt;&lt;br class=&quot;Apple-interchange-newline&quot;&gt;" style="text;whiteSpace=wrap;html=1;fontSize=8;fontColor=#333333;labelBackgroundColor=#99FFCC;" vertex="1" parent="1">
                    <mxGeometry x="510" y="362" width="330" height="130" as="geometry"/>
                </mxCell>
                <mxCell id="188" value="&lt;b id=&quot;docs-internal-guid-d254e6e2-7fff-4114-9c12-8704f2826d4b&quot; style=&quot;font-weight:normal;&quot;&gt;&lt;span style=&quot;font-size: 13.5pt; font-family: Arial, sans-serif; color: rgb(51, 51, 51); font-weight: 400; font-style: normal; font-variant: normal; text-decoration: none; vertical-align: baseline;&quot;&gt;La sentencia «If-else» se utiliza para ejecutar tanto la parte verdadera como la falsa de una condición. Si la condición es verdadera, se ejecuta el bloque de código If. Si la condición es falsa, se ejecuta el bloque de código Else.&lt;/span&gt;&lt;/b&gt;" style="text;whiteSpace=wrap;html=1;fontSize=8;fontColor=#333333;labelBackgroundColor=#99FFCC;" vertex="1" parent="1">
                    <mxGeometry x="-284" y="362" width="284" height="118" as="geometry"/>
                </mxCell>
                <mxCell id="190" value="&lt;b id=&quot;docs-internal-guid-886ca0c8-7fff-c156-d672-c10055b73e75&quot; style=&quot;font-weight:normal;&quot;&gt;&lt;span style=&quot;font-size: 12pt; font-family: Arial, sans-serif; color: rgb(22, 22, 22); font-weight: 400; font-style: normal; font-variant: normal; text-decoration: none; vertical-align: baseline;&quot;&gt;Las sentencias IF anidadas se consideran coincidentes con las combinaciones IF, ELSE y END-IF que proceden de izquierda a derecha. Por lo tanto, cualquier ELSE encontrado se compara con el IF precedente más cercano que todavía no se ha comparado con un ELSE o que no se ha terminado de forma implícita o explícita. Cualquier END-IF encontrado se compara con el IF precedente más cercano que no se ha terminado implícita o explícitamente.&lt;/span&gt;&lt;/b&gt;" style="text;whiteSpace=wrap;html=1;fontSize=8;fontColor=#333333;labelBackgroundColor=#99FFCC;" vertex="1" parent="1">
                    <mxGeometry x="1600" y="370" width="440" height="160" as="geometry"/>
                </mxCell>
                <mxCell id="194" value="&lt;font color=&quot;#ffffff&quot;&gt;Fin&lt;/font&gt;" style="ellipse;whiteSpace=wrap;html=1;labelBackgroundColor=none;fontSize=19;fontColor=#333333;" vertex="1" parent="1">
                    <mxGeometry x="-628" y="732" width="120" height="80" as="geometry"/>
                </mxCell>
                <mxCell id="195" value="Fin" style="ellipse;whiteSpace=wrap;html=1;labelBackgroundColor=none;fontSize=19;fontColor=#FFFFFF;" vertex="1" parent="1">
                    <mxGeometry x="1144" y="910" width="120" height="80" as="geometry"/>
                </mxCell>
            </root>
        </mxGraphModel>
    </diagram>
</mxfile>